<svg xmlns="http://www.w3.org/2000/svg" viewBox="0 0 800 500">
  <defs>
    <linearGradient id="awall" x1="0" y1="0" x2="0" y2="1">
      <stop offset="0" stop-color="#efe8d8"/>
      <stop offset="1" stop-color="#ded2b8"/>
    </linearGradient>
    <linearGradient id="asky" x1="0" y1="0" x2="0" y2="1">
      <stop offset="0" stop-color="#f6d9a8"/>
      <stop offset="1" stop-color="#d9a86b"/>
    </linearGradient>
  </defs>
  <rect width="800" height="380" fill="url(#awall)"/>
  <rect y="380" width="800" height="120" fill="#b39a70"/>
  <rect y="374" width="800" height="8" fill="#96794f"/>
  <!-- duże okno balkonowe z zachodem słońca -->
  <rect x="60" y="50" width="300" height="290" rx="6" fill="url(#asky)" stroke="#96794f" stroke-width="8"/>
  <circle cx="210" cy="190" r="42" fill="#f8efdd"/>
  <path d="M64 260 q60 -30 120 0 t150 8 v68 h-270 Z" fill="#c98d4b" opacity=".65"/>
  <line x1="210" y1="54" x2="210" y2="336" stroke="#96794f" stroke-width="6"/>
  <!-- sofa -->
  <rect x="430" y="250" width="230" height="42" rx="10" fill="#1a2b4a"/>
  <rect x="418" y="212" width="26" height="106" rx="8" fill="#24375c"/>
  <rect x="646" y="212" width="26" height="106" rx="8" fill="#24375c"/>
  <rect x="440" y="222" width="100" height="34" rx="8" fill="#c9a227"/>
  <rect x="548" y="222" width="100" height="34" rx="8" fill="#f2ecd9"/>
  <rect x="430" y="292" width="230" height="34" rx="6" fill="#12203a"/>
  <rect x="436" y="326" width="14" height="46" fill="#0d1729"/>
  <rect x="640" y="326" width="14" height="46" fill="#0d1729"/>
  <!-- stolik -->
  <ellipse cx="545" cy="404" rx="70" ry="14" fill="#8a6f45"/>
  <rect x="538" y="404" width="14" height="38" fill="#6c5535"/>
  <!-- roślina -->
  <rect x="712" y="322" width="34" height="52" rx="6" fill="#a3542e"/>
  <path d="M729 322 q-34 -36 -10 -74 q16 24 10 74 Z" fill="#3f7048"/>
  <path d="M729 322 q34 -40 6 -80 q-18 26 -6 80 Z" fill="#54925f"/>
  <path d="M729 326 q-4 -50 -34 -60 q2 34 34 60 Z" fill="#2f5b3a"/>
</svg>
