<svg xmlns="http://www.w3.org/2000/svg" viewBox="0 0 800 500">
  <defs>
    <linearGradient id="tbl" x1="0" y1="0" x2="0" y2="1">
      <stop offset="0" stop-color="#2c3f60"/>
      <stop offset="1" stop-color="#1a2b4a"/>
    </linearGradient>
  </defs>
  <rect width="800" height="500" fill="url(#tbl)"/>
  <ellipse cx="400" cy="420" rx="330" ry="40" fill="#101c31"/>
  <rect x="70" y="380" width="660" height="24" rx="10" fill="#8a6f45"/>
  <!-- taca -->
  <ellipse cx="330" cy="378" rx="150" ry="20" fill="#c9a227"/>
  <ellipse cx="330" cy="372" rx="150" ry="20" fill="#e7c65c"/>
  <!-- filiżanka -->
  <path d="M270 330 h70 q0 44 -35 44 t-35 -44 Z" fill="#fdfbf4"/>
  <path d="M340 336 q26 0 26 16 t-26 16" stroke="#fdfbf4" stroke-width="8" fill="none"/>
  <ellipse cx="305" cy="330" rx="35" ry="8" fill="#6b4a2f"/>
  <path d="M295 300 q6 -14 0 -26 M315 302 q6 -14 0 -26" stroke="#e7c65c" stroke-width="5" fill="none" opacity=".8"/>
  <!-- dzbanek -->
  <path d="M390 296 q0 -30 28 -30 t28 30 v58 q0 18 -28 18 t-28 -18 Z" fill="#f2ecd9"/>
  <rect x="404" y="252" width="28" height="18" rx="6" fill="#c9a227"/>
  <!-- kwiat -->
  <rect x="540" y="270" width="26" height="104" rx="10" fill="#9fb4d8" opacity=".85"/>
  <path d="M553 270 q-20 -34 0 -58 q20 24 0 58 Z" fill="#c9527a"/>
  <path d="M553 276 q-30 -16 -34 -44 q26 4 34 44 Z" fill="#e0759b"/>
  <path d="M553 276 q30 -18 32 -46 q-26 6 -32 46 Z" fill="#e0759b"/>
  <!-- świeca -->
  <rect x="196" y="330" width="26" height="44" rx="6" fill="#f7f3e8"/>
  <path d="M209 322 q10 -12 0 -22 q-10 10 0 22 Z" fill="#e7c65c"/>
</svg>
