<svg xmlns="http://www.w3.org/2000/svg" viewBox="0 0 800 500">
  <defs>
    <linearGradient id="wall" x1="0" y1="0" x2="0" y2="1">
      <stop offset="0" stop-color="#f3ede1"/>
      <stop offset="1" stop-color="#e5dcc8"/>
    </linearGradient>
    <linearGradient id="sky" x1="0" y1="0" x2="0" y2="1">
      <stop offset="0" stop-color="#bcd2e8"/>
      <stop offset="1" stop-color="#e8eef5"/>
    </linearGradient>
  </defs>
  <rect width="800" height="380" fill="url(#wall)"/>
  <rect y="380" width="800" height="120" fill="#c8b491"/>
  <rect y="374" width="800" height="8" fill="#a98f63"/>
  <!-- okno -->
  <rect x="520" y="60" width="200" height="220" rx="6" fill="url(#sky)" stroke="#a98f63" stroke-width="8"/>
  <line x1="620" y1="64" x2="620" y2="276" stroke="#a98f63" stroke-width="6"/>
  <rect x="500" y="46" width="12" height="250" fill="#8a6f45"/>
  <rect x="728" y="46" width="12" height="250" fill="#8a6f45"/>
  <!-- obraz -->
  <rect x="120" y="80" width="130" height="90" rx="4" fill="#fff" stroke="#c9a227" stroke-width="6"/>
  <circle cx="165" cy="118" r="22" fill="#1a2b4a" opacity=".25"/>
  <path d="M130 160 L175 120 L215 160 Z" fill="#1a2b4a" opacity=".35"/>
  <!-- łóżko -->
  <rect x="90" y="200" width="330" height="60" rx="10" fill="#1a2b4a"/>
  <rect x="100" y="250" width="310" height="120" rx="8" fill="#26395f"/>
  <rect x="100" y="250" width="310" height="46" rx="8" fill="#f7f3e8"/>
  <rect x="118" y="216" width="120" height="40" rx="10" fill="#fdfbf4"/>
  <rect x="252" y="216" width="120" height="40" rx="10" fill="#fdfbf4"/>
  <rect x="100" y="296" width="310" height="30" fill="#c9a227"/>
  <rect x="92" y="366" width="18" height="24" fill="#12203a"/>
  <rect x="400" y="366" width="18" height="24" fill="#12203a"/>
  <!-- szafka i lampa -->
  <rect x="440" y="300" width="64" height="70" rx="6" fill="#8a6f45"/>
  <rect x="456" y="252" width="8" height="48" fill="#42506b"/>
  <path d="M436 252 h48 l-10 -34 h-28 Z" fill="#c9a227"/>
</svg>
